<svg width="32" height="32" viewBox="0 0 32 32" fill="none" xmlns="http://www.w3.org/2000/svg">
  <defs>
    <linearGradient id="logoGradient" x1="0%" y1="0%" x2="100%" y2="100%">
      <stop offset="0%" style="stop-color:#3B82F6;stop-opacity:1" />
      <stop offset="100%" style="stop-color:#8B5CF6;stop-opacity:1" />
    </linearGradient>
  </defs>
  
  <!-- Background circle -->
  <circle cx="16" cy="16" r="15" fill="url(#logoGradient)" stroke="#1E293B" stroke-width="0.5"/>
  
  <!-- Central hexagon -->
  <polygon points="16,6 22,10 22,18 16,22 10,18 10,10" fill="none" stroke="white" stroke-width="1.5" opacity="0.9"/>
  
  <!-- Inner circuit pattern -->
  <path d="M16 10 L19 13 L16 16 L13 13 Z" fill="white" opacity="0.8"/>
  <circle cx="16" cy="16" r="2" fill="white"/>
  
  <!-- Circuit lines -->
  <line x1="16" y1="6" x2="16" y2="10" stroke="white" stroke-width="1" opacity="0.7"/>
  <line x1="22" y1="10" x2="19" y2="13" stroke="white" stroke-width="1" opacity="0.7"/>
  <line x1="22" y1="18" x2="19" y2="15" stroke="white" stroke-width="1" opacity="0.7"/>
  <line x1="16" y1="22" x2="16" y2="18" stroke="white" stroke-width="1" opacity="0.7"/>
  <line x1="10" y1="18" x2="13" y2="15" stroke="white" stroke-width="1" opacity="0.7"/>
  <line x1="10" y1="10" x2="13" y2="13" stroke="white" stroke-width="1" opacity="0.7"/>
  
  <!-- Corner dots -->
  <circle cx="16" cy="6" r="1" fill="white" opacity="0.6"/>
  <circle cx="22" cy="10" r="1" fill="white" opacity="0.6"/>
  <circle cx="22" cy="18" r="1" fill="white" opacity="0.6"/>
  <circle cx="16" cy="22" r="1" fill="white" opacity="0.6"/>
  <circle cx="10" cy="18" r="1" fill="white" opacity="0.6"/>
  <circle cx="10" cy="10" r="1" fill="white" opacity="0.6"/>
</svg>
