<svg width="40" height="40" viewBox="0 0 40 40" fill="none" xmlns="http://www.w3.org/2000/svg">
  <defs>
    <linearGradient id="navLogoGradient" x1="0%" y1="0%" x2="100%" y2="100%">
      <stop offset="0%" style="stop-color:#3B82F6;stop-opacity:1" />
      <stop offset="100%" style="stop-color:#8B5CF6;stop-opacity:1" />
    </linearGradient>
  </defs>
  
  <!-- Background circle -->
  <circle cx="20" cy="20" r="18" fill="url(#navLogoGradient)" stroke="#1E293B" stroke-width="0.5"/>
  
  <!-- Central hexagon -->
  <polygon points="20,8 26,12 26,22 20,26 14,22 14,12" fill="none" stroke="white" stroke-width="2" opacity="0.9"/>
  
  <!-- Inner circuit pattern -->
  <path d="M20 12 L24 16 L20 20 L16 16 Z" fill="white" opacity="0.8"/>
  <circle cx="20" cy="20" r="2.5" fill="white"/>
  
  <!-- Circuit lines -->
  <line x1="20" y1="8" x2="20" y2="12" stroke="white" stroke-width="1.5" opacity="0.7"/>
  <line x1="26" y1="12" x2="24" y2="16" stroke="white" stroke-width="1.5" opacity="0.7"/>
  <line x1="26" y1="22" x2="24" y2="18" stroke="white" stroke-width="1.5" opacity="0.7"/>
  <line x1="20" y1="26" x2="20" y2="22" stroke="white" stroke-width="1.5" opacity="0.7"/>
  <line x1="14" y1="22" x2="16" y2="18" stroke="white" stroke-width="1.5" opacity="0.7"/>
  <line x1="14" y1="12" x2="16" y2="16" stroke="white" stroke-width="1.5" opacity="0.7"/>
  
  <!-- Corner dots -->
  <circle cx="20" cy="8" r="1.5" fill="white" opacity="0.6"/>
  <circle cx="26" cy="12" r="1.5" fill="white" opacity="0.6"/>
  <circle cx="26" cy="22" r="1.5" fill="white" opacity="0.6"/>
  <circle cx="20" cy="26" r="1.5" fill="white" opacity="0.6"/>
  <circle cx="14" cy="22" r="1.5" fill="white" opacity="0.6"/>
  <circle cx="14" cy="12" r="1.5" fill="white" opacity="0.6"/>
</svg>